<?xml version="1.0" encoding="utf-8"?>
<!-- Generator: Adobe Illustrator 23.0.4, SVG Export Plug-In . SVG Version: 6.00 Build 0)  -->
<svg version="1.1" id="レイヤー_1" xmlns="http://www.w3.org/2000/svg" xmlns:xlink="http://www.w3.org/1999/xlink" x="0px"
	 y="0px" viewBox="0 0 300 60" style="enable-background:new 0 0 300 60;" xml:space="preserve">
<style type="text/css">
	.st0{fill:#FFFFFF;stroke:#666666;stroke-width:3;stroke-miterlimit:10;}
	.st1{fill:#666666;stroke:#666666;stroke-miterlimit:10;}
	.st2{fill:#666666;}
</style>
<g>
	<g>
		<g>
			<path class="st0" d="M294.71,23.91c-0.35-1.14-1.37-1.92-2.52-1.92h-15.2L272.35,6.9c-0.35-1.14-1.37-1.92-2.52-1.92
				s-2.17,0.78-2.52,1.92l-4.63,15.09h-15.2c-1.15,0-2.17,0.78-2.52,1.92s0.04,2.4,0.98,3.1l12.33,9.26l-4.75,15.08
				c-0.36,1.14,0.03,2.4,0.96,3.11c0.93,0.71,2.19,0.7,3.12-0.01l12.24-9.38l12.24,9.38c0.93,0.71,2.19,0.71,3.12,0.01
				c0.93-0.71,1.32-1.96,0.96-3.11l-4.75-15.08L293.73,27C294.66,26.3,295.06,25.05,294.71,23.91z"/>
		</g>
	</g>
	<g>
		<path class="st1" d="M174.87,23.92c-0.35-1.14-1.37-1.92-2.52-1.92h-15.2l-4.63-15.09c-0.35-1.14-1.37-1.92-2.52-1.92
			c-1.15,0-2.17,0.78-2.52,1.92L142.85,22h-15.2c-1.15,0-2.17,0.78-2.52,1.92s0.04,2.4,0.98,3.1l12.33,9.26l-4.75,15.08
			c-0.36,1.14,0.03,2.4,0.96,3.11c0.93,0.71,2.19,0.7,3.12-0.01L150,45.07l12.24,9.38c0.93,0.71,2.19,0.71,3.12,0.01
			c0.93-0.71,1.32-1.96,0.96-3.11l-4.75-15.08l12.33-9.26C174.83,26.31,175.22,25.06,174.87,23.92z"/>
	</g>
</g>
<g>
	<g>
		<path class="st0" d="M234.63,23.97c-0.35-1.14-1.37-1.91-2.52-1.91h-15.2l-4.63-15.02c-0.35-1.14-1.37-1.91-2.52-1.91
			c-1.15,0-2.17,0.77-2.52,1.91l-4.63,15.02h-15.2c-1.15,0-2.17,0.77-2.52,1.91s0.04,2.39,0.98,3.08l12.33,9.22l-4.75,15.01
			c-0.36,1.14,0.03,2.39,0.96,3.09c0.93,0.7,2.19,0.7,3.12-0.01l12.24-9.34L222,54.38c0.93,0.71,2.19,0.71,3.12,0.01
			s1.32-1.95,0.96-3.09l-4.75-15.01l12.33-9.22C234.59,26.36,234.98,25.11,234.63,23.97z"/>
	</g>
	<path class="st2" d="M209.76,44.89V5c-1.17,0.41-1.95,0.41-2.82,3.42l-4.27,13.55H188.1c0,0-2.57-0.03-3.05,1.78
		c-0.48,1.8,0.22,2.69,0.22,2.69l12.97,9.7l-4.64,14.72c0,0-0.82,2.38,0.74,3.6c1.56,1.22,3.12,0,3.12,0L209.76,44.89z"/>
	<g>
		<path class="st1" d="M54.87,23.93c-0.35-1.14-1.37-1.92-2.52-1.92h-15.2L32.52,6.92C32.17,5.78,31.15,5,30,5s-2.17,0.78-2.52,1.92
			l-4.63,15.09H7.65c-1.15,0-2.17,0.78-2.52,1.92s0.04,2.4,0.98,3.1l12.33,9.26l-4.75,15.08c-0.36,1.14,0.03,2.4,0.96,3.11
			s2.19,0.7,3.12-0.01L30,45.08l12.24,9.38c0.93,0.71,2.19,0.71,3.12,0.01c0.93-0.71,1.32-1.96,0.96-3.11l-4.75-15.08l12.33-9.26
			C54.83,26.33,55.22,25.07,54.87,23.93z"/>
	</g>
	<g>
		<path class="st1" d="M114.93,23.93c-0.35-1.14-1.37-1.92-2.52-1.92H97.2L92.57,6.92C92.22,5.78,91.21,5,90.06,5
			s-2.17,0.78-2.52,1.92L82.91,22H67.7c-1.15,0-2.17,0.78-2.52,1.92s0.04,2.4,0.98,3.1l12.33,9.26l-4.75,15.07
			c-0.47,1.48,0.32,3.14,1.9,3.57c0.77,0.21,1.59-0.02,2.23-0.51l12.19-9.34l12.19,9.34c0.64,0.49,1.46,0.72,2.23,0.51
			c1.58-0.43,2.36-2.09,1.9-3.57l-4.75-15.07l12.33-9.26C114.89,26.32,115.28,25.07,114.93,23.93z"/>
	</g>
</g>
</svg>
