<?xml version="1.0" encoding="utf-8"?>
<!-- Generator: Adobe Illustrator 23.0.4, SVG Export Plug-In . SVG Version: 6.00 Build 0)  -->
<svg version="1.1" id="レイヤー_1" xmlns="http://www.w3.org/2000/svg" xmlns:xlink="http://www.w3.org/1999/xlink" x="0px"
	 y="0px" viewBox="0 0 300 60" style="enable-background:new 0 0 300 60;" xml:space="preserve">
<style type="text/css">
	.st0{fill:#FFFFFF;stroke:#666666;stroke-width:3;stroke-miterlimit:10;}
	.st1{fill:#666666;}
</style>
<g>
	<g>
		<g>
			<path class="st0" d="M294.87,24c-0.35-1.14-1.37-1.91-2.52-1.91h-15.2l-4.63-15.02c-0.35-1.14-1.37-1.91-2.52-1.91
				s-2.17,0.77-2.52,1.91l-4.63,15.02h-15.2c-1.15,0-2.17,0.77-2.52,1.91s0.04,2.39,0.98,3.08l12.33,9.22l-4.75,15.01
				c-0.36,1.14,0.03,2.39,0.96,3.09c0.93,0.7,2.19,0.7,3.12-0.01L270,45.07l12.24,9.34c0.93,0.71,2.19,0.71,3.12,0.01
				s1.32-1.95,0.96-3.09l-4.75-15.01l12.33-9.22C294.83,26.39,295.22,25.14,294.87,24z"/>
		</g>
	</g>
	<g>
		<path class="st1" d="M174.87,23.92c-0.35-1.14-1.37-1.92-2.52-1.92h-15.2l-4.63-15.09c-0.35-1.14-1.37-1.92-2.52-1.92
			c-1.15,0-2.17,0.78-2.52,1.92L142.85,22h-15.2c-1.15,0-2.17,0.78-2.52,1.92s0.04,2.4,0.98,3.1l12.33,9.26l-4.75,15.08
			c-0.36,1.14,0.03,2.4,0.96,3.11c0.93,0.71,2.19,0.7,3.12-0.01L150,45.07l12.24,9.38c0.93,0.71,2.19,0.71,3.12,0.01
			c0.93-0.71,1.32-1.96,0.96-3.11l-4.75-15.08l12.33-9.26C174.83,26.31,175.22,25.06,174.87,23.92z"/>
	</g>
</g>
<g>
	<g>
		<path class="st1" d="M235.18,23.92c-0.35-1.14-1.37-1.92-2.52-1.92h-15.2l-4.63-15.09c-0.35-1.14-1.37-1.92-2.52-1.92
			c-1.15,0-2.17,0.78-2.52,1.92L203.16,22h-15.2c-1.15,0-2.17,0.78-2.52,1.92s0.04,2.4,0.98,3.1l12.33,9.26L194,51.36
			c-0.45,1.42,0.26,3.02,1.74,3.52c0.82,0.28,1.73,0.05,2.41-0.48l12.16-9.33l12.16,9.33c0.69,0.53,1.59,0.75,2.41,0.48
			c1.47-0.5,2.19-2.09,1.74-3.52l-4.75-15.08l12.33-9.26C235.14,26.32,235.53,25.06,235.18,23.92z"/>
	</g>
	<g>
		<path class="st1" d="M54.87,23.93c-0.35-1.14-1.37-1.92-2.52-1.92h-15.2L32.52,6.92C32.17,5.78,31.15,5,30,5s-2.17,0.78-2.52,1.92
			l-4.63,15.09H7.65c-1.15,0-2.17,0.78-2.52,1.92s0.04,2.4,0.98,3.1l12.33,9.26l-4.75,15.08c-0.36,1.14,0.03,2.4,0.96,3.11
			s2.19,0.7,3.12-0.01L30,45.08l12.24,9.38c0.93,0.71,2.19,0.71,3.12,0.01c0.93-0.71,1.32-1.96,0.96-3.11l-4.75-15.08l12.33-9.26
			C54.83,26.33,55.22,25.07,54.87,23.93z"/>
	</g>
	<g>
		<path class="st1" d="M114.93,23.93c-0.35-1.14-1.37-1.92-2.52-1.92H97.2L92.57,6.92C92.22,5.78,91.21,5,90.06,5
			s-2.17,0.78-2.52,1.92L82.91,22H67.7c-1.15,0-2.17,0.78-2.52,1.92s0.04,2.4,0.98,3.1l12.33,9.26l-4.75,15.07
			c-0.47,1.48,0.32,3.14,1.9,3.57c0.77,0.21,1.59-0.02,2.23-0.51l12.19-9.34l12.19,9.34c0.64,0.49,1.46,0.72,2.23,0.51
			c1.58-0.43,2.36-2.09,1.9-3.57l-4.75-15.07l12.33-9.26C114.89,26.32,115.28,25.07,114.93,23.93z"/>
	</g>
</g>
</svg>
